<svg width="60" height="60" viewBox="0 0 60 60" fill="none" xmlns="http://www.w3.org/2000/svg">
<path d="M0 12C0 5.37258 5.37258 0 12 0H48C54.6274 0 60 5.37258 60 12V48C60 54.6274 54.6274 60 48 60H12C5.37258 60 0 54.6274 0 48V12Z" fill="#4FC2BB" fill-opacity="0.1"/>
<path fill-rule="evenodd" clip-rule="evenodd" d="M35.0258 35.6977C34.5465 36.6162 33.8245 37.3858 32.9385 37.9229C32.0525 38.4599 31.0362 38.7439 30.0001 38.7439C28.964 38.7439 27.9477 38.4599 27.0617 37.9229C26.1756 37.3858 25.4537 36.6162 24.9743 35.6977C24.9174 35.5886 24.8825 35.4693 24.8717 35.3466C24.8609 35.224 24.8743 35.1004 24.9112 34.983C24.9481 34.8655 25.0078 34.7565 25.0869 34.6621C25.1659 34.5677 25.2628 34.4899 25.372 34.4329C25.4811 34.376 25.6004 34.3411 25.7231 34.3303C25.8457 34.3194 25.9693 34.3328 26.0867 34.3698C26.2042 34.4067 26.3132 34.4664 26.4076 34.5454C26.5019 34.6245 26.5798 34.7214 26.6368 34.8305C26.9576 35.4452 27.4407 35.9602 28.0337 36.3196C28.6266 36.6789 29.3067 36.8689 30 36.8689C30.6934 36.8689 31.3735 36.6789 31.9664 36.3196C32.5594 35.9602 33.0425 35.4452 33.3633 34.8305C33.4203 34.7214 33.4982 34.6245 33.5925 34.5454C33.6869 34.4663 33.796 34.4066 33.9134 34.3697C34.0309 34.3327 34.1545 34.3193 34.2771 34.3301C34.3998 34.3409 34.5191 34.3758 34.6283 34.4328C34.7375 34.4897 34.8344 34.5676 34.9134 34.662C34.9925 34.7564 35.0522 34.8654 35.0892 34.9829C35.1261 35.1003 35.1395 35.2239 35.1287 35.3466C35.1179 35.4692 35.083 35.5885 35.0261 35.6977H35.0258ZM37.4968 30.6759C37.2336 30.6759 36.9764 30.5978 36.7575 30.4515C36.5387 30.3052 36.3682 30.0974 36.2675 29.8542C36.1668 29.611 36.1404 29.3434 36.1918 29.0853C36.2432 28.8271 36.3699 28.59 36.556 28.4039C36.7421 28.2178 36.9792 28.091 37.2374 28.0396C37.4955 27.9883 37.7631 28.0146 38.0063 28.1153C38.2495 28.216 38.4573 28.3865 38.6036 28.6053C38.7499 28.8241 38.828 29.0814 38.8281 29.3446C38.8279 29.6977 38.6876 30.0362 38.4379 30.2858C38.1882 30.5355 37.8497 30.6758 37.4966 30.6759H37.4968ZM37.4968 26.1391C36.8628 26.1392 36.2429 26.3273 35.7158 26.6796C35.1886 27.0319 34.7777 27.5327 34.5351 28.1185C34.2925 28.7044 34.2291 29.349 34.3529 29.9709C34.4767 30.5928 34.7821 31.164 35.2305 31.6123C35.6789 32.0606 36.2502 32.3659 36.8721 32.4895C37.494 32.6131 38.1386 32.5495 38.7244 32.3068C39.3102 32.0641 39.8108 31.6531 40.163 31.1258C40.5152 30.5985 40.7032 29.9787 40.7031 29.3446C40.702 28.4947 40.3639 27.6799 39.7628 27.079C39.1618 26.478 38.3469 26.14 37.497 26.1391H37.4968ZM22.503 30.6759C22.2398 30.676 21.9824 30.5981 21.7635 30.4519C21.5445 30.3057 21.3739 30.0979 21.273 29.8548C21.1722 29.6116 21.1457 29.344 21.197 29.0858C21.2483 28.8276 21.3749 28.5904 21.561 28.4042C21.7471 28.218 21.9842 28.0912 22.2424 28.0397C22.5005 27.9883 22.7682 28.0145 23.0114 28.1152C23.2546 28.2159 23.4626 28.3864 23.6089 28.6052C23.7552 28.824 23.8333 29.0814 23.8334 29.3446C23.8331 29.6974 23.6929 30.0357 23.4435 30.2853C23.1941 30.5349 22.8559 30.6754 22.503 30.6759ZM22.503 26.1391C21.8689 26.139 21.249 26.327 20.7217 26.6792C20.1944 27.0315 19.7834 27.5322 19.5407 28.118C19.298 28.7038 19.2345 29.3485 19.3582 29.9704C19.4819 30.5923 19.7872 31.1636 20.2356 31.612C20.684 32.0604 21.2553 32.3657 21.8772 32.4894C22.4991 32.6131 23.1438 32.5496 23.7296 32.3069C24.3154 32.0642 24.8161 31.6532 25.1684 31.1259C25.5206 30.5986 25.7086 29.9787 25.7085 29.3446C25.7074 28.4948 25.3693 27.6801 24.7684 27.0792C24.1675 26.4783 23.3528 26.1402 22.503 26.1391ZM47.9039 35.5258C47.9037 35.9345 47.7413 36.3263 47.4524 36.6153C47.1635 36.9042 46.7717 37.0668 46.3631 37.0672H45.8006V26.0125H46.3631C46.7717 26.0129 47.1635 26.1754 47.4524 26.4644C47.7412 26.7534 47.9037 27.1452 47.9039 27.5538V35.5257V35.5258ZM43.9257 38.4087V24.6711C43.9245 23.7872 43.5728 22.9398 42.9477 22.3149C42.3226 21.69 41.4752 21.3385 40.5913 21.3376H19.4086C18.5247 21.3385 17.6772 21.69 17.0521 22.3149C16.427 22.9398 16.0753 23.7872 16.0741 24.6711V38.4087C16.0753 39.2926 16.427 40.14 17.0521 40.7649C17.6772 41.3898 18.5247 41.7413 19.4086 41.7422H26.3148C26.4794 41.7423 26.6411 41.7856 26.7837 41.8679C26.9263 41.9502 27.0448 42.0685 27.1273 42.2109L30 47.1875L32.8734 42.2109C32.9557 42.0684 33.074 41.9501 33.2165 41.8678C33.3591 41.7855 33.5207 41.7422 33.6853 41.7422H40.5915C41.4754 41.7413 42.3229 41.3898 42.948 40.7649C43.5731 40.1399 43.9248 39.2926 43.926 38.4087H43.9257ZM12.0959 35.5258V27.554C12.0962 27.1454 12.2586 26.7536 12.5475 26.4646C12.8363 26.1756 13.2281 26.0131 13.6367 26.0126H14.1992V37.0673H13.6367C13.2281 37.0669 12.8363 36.9044 12.5475 36.6154C12.2586 36.3264 12.0962 35.9346 12.0959 35.526V35.5258ZM28.0265 13.8486C28.0264 13.4582 28.1421 13.0767 28.359 12.7521C28.5758 12.4275 28.884 12.1746 29.2446 12.0252C29.6052 11.8758 30.002 11.8367 30.3849 11.9128C30.7677 11.9889 31.1194 12.1769 31.3954 12.4529C31.6714 12.7289 31.8594 13.0805 31.9356 13.4634C32.0117 13.8462 31.9726 14.243 31.8233 14.6036C31.6739 14.9642 31.421 15.2725 31.0964 15.4893C30.7719 15.7062 30.3903 15.8219 30 15.8219C29.4768 15.8214 28.9752 15.6133 28.6052 15.2433C28.2352 14.8734 28.0271 14.3718 28.0265 13.8486H28.0265ZM46.3631 24.1376H45.7734C45.6397 22.8559 45.0363 21.6689 44.0794 20.8057C43.1225 19.9424 41.8799 19.4639 40.5912 19.4625H30.9375V17.5806C31.8481 17.3519 32.6437 16.7982 33.1745 16.0237C33.7052 15.2493 33.9346 14.3075 33.8194 13.3757C33.7042 12.4439 33.2523 11.5864 32.5488 10.9646C31.8454 10.3427 30.9389 9.99951 30 9.99951C29.0611 9.99951 28.1546 10.3427 27.4511 10.9646C26.7477 11.5864 26.2958 12.4439 26.1805 13.3757C26.0653 14.3075 26.2947 15.2493 26.8255 16.0237C27.3563 16.7982 28.1519 17.3519 29.0625 17.5806V19.4625H19.4086C18.1198 19.4639 16.8772 19.9423 15.9203 20.8056C14.9635 21.6689 14.3601 22.8558 14.2265 24.1376H13.6367C12.731 24.1388 11.8628 24.4991 11.2224 25.1395C10.582 25.78 10.2218 26.6483 10.2208 27.554V35.5258C10.2218 36.4315 10.582 37.2999 11.2224 37.9403C11.8627 38.5808 12.731 38.9411 13.6367 38.9422H14.2265C14.3601 40.2239 14.9635 41.4109 15.9204 42.2741C16.8773 43.1374 18.1198 43.6158 19.4086 43.6172H25.774L29.1881 49.5312C29.2704 49.6737 29.3887 49.792 29.5312 49.8743C29.6737 49.9566 29.8354 49.9999 29.9999 49.9999C30.1645 49.9999 30.3261 49.9566 30.4686 49.8743C30.6111 49.792 30.7295 49.6737 30.8118 49.5312L34.2265 43.6172H40.5913C41.88 43.6157 43.1225 43.1372 44.0794 42.274C45.0362 41.4108 45.6397 40.2239 45.7734 38.9422H46.363C47.2687 38.9411 48.137 38.5808 48.7773 37.9403C49.4177 37.2999 49.7779 36.4315 49.7789 35.5258V27.554C49.7779 26.6483 49.4177 25.78 48.7774 25.1395C48.137 24.4991 47.2688 24.1388 46.3631 24.1376Z" fill="#4FC2BB"/>
</svg>
